# xmcd CD database file
#
# Track frame offsets:
#	150
#	16958
#	34022
#	51406
#	67603
#	87191
#	104670
#	119982
#	139305
#	158683
#	174912
#	190146
#	206645
#	221520
#
# Disc length: 3166 seconds
#
# Revision: 0
# Processed by: cddbd v1.4PL0 Copyright (c) Steve Scherf et al.
# Submitted via: Feurio! 1.66 - http://www.feurio.com
#
DISCID=c60c5c0e
DTITLE=Matthias Carras - Verliebt
DYEAR=2002
DGENRE=Schlager
TTITLE0=S.O.S. - Lara,I'm in Love
TTITLE1=Du,ich bin verliebt
TTITLE2=Ich lieg in der Sonne
TTITLE3=Julie (Du bist der Wahnsinn)
TTITLE4=Rocky
TTITLE5=Ich schau dir zu beim Träumen
TTITLE6=Ich will dich Atmen
TTITLE7=Alles wegen dir
TTITLE8=Carras Mini Mix (tu nicht so Cool,Ich surf auf wolke 7,Du bist suess 
TTITLE8=wenn du sauer bist)
TTITLE9=So verrueckt nach dir
TTITLE10=Ich Surf auf Wolke 7
TTITLE11=100 Stunden
TTITLE12=Ich brauche dich
TTITLE13=Sorry Verzeih
EXTD=
EXTT0=
EXTT1=
EXTT2=
EXTT3=
EXTT4=
EXTT5=
EXTT6=
EXTT7=
EXTT8=
EXTT9=
EXTT10=
EXTT11=
EXTT12=
EXTT13=
PLAYORDER=
